# xmcd
#
# Track frame offsets: 
#        150
#        11921
#        25029
#        36875
#        47982
#        57712
#        69905
#        83706
#        95448
#        104962
#
# Disc length: 1567 seconds
#
# Revision: 0
# Processed by: cddbd v1.5.2PL0 Copyright (c) Steve Scherf et al.
# Submitted via: ExactAudioCopy v0.95b4
#
DISCID=88061d0a
DTITLE=Liz Anderson - If The Creek Don't Rise
DYEAR=1969
DGENRE=Country
TTITLE0=Mockin' Bird Hill
TTITLE1=(Margie's At) The Lincoln Park
TTITLE2=Rings Of Gold
TTITLE3=The Rainy Season's Over
TTITLE4=Stand Back (There's Gonna Be A
TTITLE5=If The Creek Don't Rise
TTITLE6=Mr. Walker, It's All Over
TTITLE7=Roses Are Red
TTITLE8=Ekcedrin Headache #99
TTITLE9=This Old House
EXTD=
EXTT0=
EXTT1=
EXTT2=
EXTT3=
EXTT4=
EXTT5=
EXTT6=
EXTT7=
EXTT8=
EXTT9=
PLAYORDER=
